<svg width="18" height="18" viewBox="0 0 16 17" fill="none" xmlns="http://www.w3.org/2000/svg">
<path fill-rule="evenodd" clip-rule="evenodd" d="M7.66109 0.236568C7.85709 0.0738132 8.1429 0.0738134 8.33891 0.236568C10.2777 1.84642 12.7315 2.85747 15.4166 2.98601C15.658 2.99756 15.8641 3.17189 15.8957 3.41143C15.9645 3.93129 16 4.46164 16 5.00028C16 10.1627 12.7401 14.5637 8.16655 16.2572C8.05931 16.2969 7.94102 16.2969 7.83378 16.2572C3.26004 14.5638 0 10.1627 0 5.00016C0 4.46156 0.0354836 3.93125 0.10424 3.41144C0.135926 3.17189 0.342016 2.99756 0.583373 2.98601C3.2685 2.85748 5.72231 1.84643 7.66109 0.236568ZM11.8566 6.19113C12.1002 5.85614 12.0261 5.38708 11.6911 5.14345C11.3561 4.89982 10.8871 4.97388 10.6434 5.30887L7.15969 10.099L5.28033 8.21967C4.98744 7.92678 4.51256 7.92678 4.21967 8.21967C3.92678 8.51256 3.92678 8.98744 4.21967 9.28033L6.71967 11.7803C6.87477 11.9354 7.08999 12.0149 7.30867 11.9977C7.52734 11.9805 7.72754 11.8685 7.85655 11.6911L11.8566 6.19113Z" fill="#0F172A"/>
</svg>
