<svg width="18" height="18" viewBox="0 0 16 14" fill="none" xmlns="http://www.w3.org/2000/svg">
<path d="M7.65298 13.9149L7.6476 13.9121L7.62912 13.9024C7.61341 13.8941 7.59102 13.8822 7.56238 13.8667C7.50511 13.8358 7.42281 13.7907 7.31906 13.732C7.11164 13.6146 6.81794 13.4425 6.46663 13.2206C5.76556 12.7777 4.82731 12.1314 3.88539 11.3197C2.04447 9.73318 0 7.35227 0 4.5C0 2.01472 2.01472 0 4.5 0C5.9144 0 7.17542 0.652377 8 1.67158C8.82458 0.652377 10.0856 0 11.5 0C13.9853 0 16 2.01472 16 4.5C16 7.35227 13.9555 9.73318 12.1146 11.3197C11.1727 12.1314 10.2344 12.7777 9.53337 13.2206C9.18206 13.4425 8.88836 13.6146 8.68094 13.732C8.57719 13.7907 8.49489 13.8358 8.43762 13.8667C8.40898 13.8822 8.38659 13.8941 8.37088 13.9024L8.3524 13.9121L8.34702 13.9149L8.34531 13.9158C8.13 14.03 7.87 14.03 7.65529 13.9161L7.65298 13.9149Z" fill="#0F172A"/>
</svg>
