<svg xmlns="http://www.w3.org/2000/svg" width="21" height="24"><path d="M 10.505 6.609 C 7.523 6.609 5.119 9.014 5.119 11.995 C 5.119 14.977 7.523 17.381 10.505 17.381 C 13.486 17.381 15.891 14.977 15.891 11.995 C 15.891 9.014 13.486 6.609 10.505 6.609 Z M 10.505 15.497 C 8.578 15.497 7.003 13.927 7.003 11.995 C 7.003 10.064 8.573 8.494 10.505 8.494 C 12.436 8.494 14.006 10.064 14.006 11.995 C 14.006 13.927 12.431 15.497 10.505 15.497 Z M 17.367 6.389 C 17.367 7.087 16.805 7.645 16.111 7.645 C 15.412 7.645 14.855 7.083 14.855 6.389 C 14.855 5.695 15.417 5.133 16.111 5.133 C 16.805 5.133 17.367 5.695 17.367 6.389 Z M 20.934 7.664 C 20.855 5.981 20.47 4.491 19.238 3.263 C 18.009 2.034 16.519 1.65 14.836 1.566 C 13.102 1.467 7.903 1.467 6.169 1.566 C 4.491 1.645 3 2.03 1.767 3.258 C 0.534 4.486 0.155 5.977 0.07 7.659 C -0.028 9.394 -0.028 14.592 0.07 16.327 C 0.15 18.009 0.534 19.5 1.767 20.728 C 3 21.956 4.486 22.341 6.169 22.425 C 7.903 22.523 13.102 22.523 14.836 22.425 C 16.519 22.345 18.009 21.961 19.237 20.728 C 20.466 19.5 20.85 18.009 20.934 16.327 C 21.033 14.592 21.033 9.398 20.934 7.664 Z M 18.694 18.188 C 18.328 19.106 17.62 19.814 16.697 20.184 C 15.314 20.733 12.033 20.606 10.505 20.606 C 8.977 20.606 5.691 20.728 4.312 20.184 C 3.394 19.819 2.686 19.111 2.316 18.188 C 1.767 16.805 1.894 13.523 1.894 11.995 C 1.894 10.467 1.772 7.181 2.316 5.803 C 2.681 4.884 3.389 4.177 4.312 3.806 C 5.695 3.258 8.977 3.384 10.505 3.384 C 12.033 3.384 15.319 3.263 16.697 3.806 C 17.616 4.172 18.323 4.88 18.694 5.803 C 19.242 7.186 19.116 10.467 19.116 11.995 C 19.116 13.523 19.242 16.809 18.694 18.188 Z" fill="rgb(255,255,255)"></path></svg>